<svg xmlns="http://www.w3.org/2000/svg" fill="none" viewBox="39.924017391304346 19.7976 50.869565217391305 33.9" style="max-height: 500px" width="50.869565217391305" height="33.9">
<g filter="url(#filter0_dd_8_54037)">
<rect fill="white" rx="15.5" height="31" width="48" y="21" x="41"/>
<rect stroke="#D6DCE5" rx="16" height="32" width="49" y="20.5" x="40.5"/>
<path fill="#000008" d="M68.1034 44.8187C68.1069 44.9565 68.0804 45.0934 68.0258 45.2199C67.9789 45.3253 67.9091 45.419 67.8216 45.4941C67.7366 45.5654 67.6379 45.6187 67.5317 45.6506C67.3135 45.7176 67.0803 45.7176 66.8621 45.6506C66.7556 45.6186 66.6567 45.5653 66.5712 45.4941C66.4833 45.4194 66.4135 45.3256 66.367 45.2199C66.313 45.0932 66.2869 44.9564 66.2905 44.8187V43.6889H66.7192V44.7798C66.7172 44.8615 66.7296 44.943 66.7559 45.0203C66.7769 45.0809 66.8115 45.1359 66.857 45.181C66.9001 45.222 66.9522 45.2525 67.0091 45.2699C67.1316 45.3068 67.2622 45.3068 67.3847 45.2699C67.4416 45.2525 67.4937 45.222 67.5368 45.181C67.5824 45.1359 67.6169 45.0809 67.6379 45.0203C67.6642 44.943 67.6766 44.8616 67.6746 44.7798V43.6889H68.1034V44.8187ZM64.1508 43.6397C64.0471 43.6367 63.9444 43.6617 63.8537 43.7122C63.763 43.7628 63.6876 43.8369 63.6354 43.9268V43.689H63.2141V45.649H63.6395V44.5501C63.6395 44.2261 63.7786 44.0457 64.0567 44.0457C64.1477 44.0444 64.238 44.0612 64.3226 44.0949L64.4535 43.6931C64.3563 43.6582 64.254 43.6402 64.1508 43.6397ZM65.6657 43.6397C65.562 43.6367 65.4593 43.6617 65.3686 43.7122C65.2779 43.7628 65.2025 43.8369 65.1503 43.9268V43.689H64.729V45.649H65.1544V44.5501C65.1544 44.2261 65.2934 44.0457 65.5716 44.0457C65.6626 44.0444 65.7529 44.0612 65.8375 44.0949L65.9684 43.6931C65.8712 43.6582 65.7689 43.6402 65.6657 43.6397ZM60.0236 44.669C60.018 44.807 60.0412 44.9448 60.0919 45.0733C60.1425 45.2019 60.2194 45.3183 60.3177 45.4153C60.4159 45.5122 60.5333 45.5875 60.6623 45.6362C60.7913 45.6849 60.9291 45.7061 61.0667 45.6982C61.3221 45.7111 61.573 45.6277 61.7702 45.4644L61.5657 45.12C61.4186 45.2324 61.2393 45.2942 61.0544 45.2963C60.895 45.2866 60.7453 45.2163 60.6358 45.0997C60.5264 44.9831 60.4654 44.8291 60.4654 44.669C60.4654 44.5089 60.5264 44.3548 60.6358 44.2382C60.7453 44.1217 60.895 44.0513 61.0544 44.0416C61.2393 44.0437 61.4186 44.1056 61.5657 44.218L61.7702 43.8735C61.573 43.7103 61.3221 43.6269 61.0667 43.6397C60.9291 43.6319 60.7913 43.653 60.6623 43.7017C60.5333 43.7505 60.4159 43.8257 60.3177 43.9227C60.2194 44.0196 60.1425 44.1361 60.0919 44.2646C60.0412 44.3931 60.018 44.5309 60.0236 44.669ZM70.1454 43.8448C69.9046 43.7013 69.6278 43.6301 69.3478 43.6397C68.8528 43.6397 68.5338 43.8776 68.5338 44.2671C68.5338 44.587 68.7711 44.7838 69.2087 44.8453L69.4091 44.874C69.6423 44.9068 69.7527 44.9683 69.7527 45.079C69.7527 45.2307 69.5973 45.3169 69.3069 45.3169C69.0733 45.3236 68.8442 45.2514 68.6565 45.1118L68.4561 45.4439C68.7039 45.6174 69.0007 45.7066 69.3028 45.6982C69.8672 45.6982 70.1945 45.4316 70.1945 45.0585C70.1945 44.7141 69.9368 44.5337 69.5114 44.4721L69.311 44.4434C69.1269 44.4188 68.9796 44.382 68.9796 44.2507C68.9796 44.1072 69.1187 44.0211 69.3519 44.0211C69.566 44.0243 69.7757 44.0822 69.9613 44.1892L70.1454 43.8448ZM70.8603 45.3649C70.8866 45.3647 70.9127 45.3699 70.937 45.3801C70.9604 45.3899 70.9817 45.404 70.9998 45.4218C71.0177 45.4395 71.032 45.4605 71.042 45.4837C71.0522 45.5075 71.0575 45.5332 71.0575 45.5591C71.0575 45.585 71.0522 45.6106 71.042 45.6345C71.032 45.6575 71.0176 45.6785 70.9998 45.6961C70.9816 45.7139 70.9604 45.7281 70.937 45.738C70.9128 45.7485 70.8867 45.7537 70.8603 45.7535C70.8215 45.7539 70.7834 45.7428 70.7508 45.7217C70.7182 45.7005 70.6926 45.6702 70.6771 45.6345C70.667 45.6106 70.6617 45.585 70.6617 45.5591C70.6617 45.5332 70.667 45.5075 70.6771 45.4837C70.6871 45.4605 70.7014 45.4395 70.7192 45.4218C70.7373 45.4039 70.7586 45.3897 70.7822 45.3801C70.8069 45.3698 70.8335 45.3647 70.8603 45.3649ZM70.8603 45.7107C70.8804 45.7108 70.9003 45.7068 70.9188 45.6987C70.9365 45.691 70.9526 45.68 70.9662 45.6664C70.9837 45.6488 70.9967 45.6273 71.0039 45.6036C71.0112 45.5799 71.0125 45.5548 71.0078 45.5305C71.0032 45.5061 70.9926 45.4833 70.977 45.464C70.9615 45.4448 70.9415 45.4296 70.9188 45.4199C70.9003 45.412 70.8804 45.408 70.8603 45.4082C70.8398 45.408 70.8195 45.412 70.8007 45.4199C70.7826 45.4273 70.7663 45.4382 70.7524 45.452C70.7313 45.4733 70.7169 45.5003 70.7111 45.5298C70.7053 45.5593 70.7084 45.5898 70.7199 45.6175C70.7315 45.6453 70.751 45.6689 70.776 45.6855C70.801 45.7021 70.8303 45.7108 70.8603 45.7107ZM70.8717 45.4682C70.8908 45.467 70.9097 45.4724 70.9252 45.4837C70.9313 45.4888 70.9362 45.4952 70.9395 45.5026C70.9427 45.5099 70.9443 45.5178 70.9439 45.5258C70.9441 45.5327 70.9429 45.5395 70.9403 45.5459C70.9378 45.5522 70.9339 45.558 70.929 45.5627C70.9171 45.5732 70.9022 45.5795 70.8864 45.5806L70.9453 45.6487H70.8993L70.8446 45.5811H70.827V45.6487H70.7886V45.4682H70.8717ZM70.827 45.5021V45.5501H70.8712C70.8797 45.5506 70.8881 45.5485 70.8955 45.5442C70.8985 45.5422 70.9008 45.5394 70.9024 45.5362C70.904 45.533 70.9047 45.5294 70.9045 45.5258C70.9047 45.5223 70.9039 45.5188 70.9024 45.5157C70.9008 45.5126 70.8984 45.5099 70.8955 45.508C70.8881 45.5037 70.8797 45.5016 70.8712 45.5021H70.827ZM62.7131 43.0117C62.7135 43.0514 62.7059 43.0907 62.6908 43.1274C62.6757 43.1641 62.6534 43.1973 62.6252 43.2252C62.597 43.2531 62.5635 43.275 62.5268 43.2896C62.49 43.3043 62.4506 43.3114 62.4111 43.3105C62.3717 43.3113 62.3326 43.3041 62.2961 43.2894C62.2595 43.2746 62.2264 43.2527 62.1985 43.2248C62.1707 43.1968 62.1488 43.1636 62.1341 43.127C62.1194 43.0904 62.1122 43.0511 62.1131 43.0117C62.1122 42.972 62.1192 42.9326 62.1339 42.8957C62.1485 42.8588 62.1703 42.8253 62.1981 42.797C62.2259 42.7688 62.2591 42.7464 62.2957 42.7313C62.3322 42.7162 62.3715 42.7085 62.4111 42.7089C62.4508 42.7085 62.4903 42.716 62.5272 42.7311C62.564 42.7461 62.5975 42.7684 62.6256 42.7966C62.6538 42.8248 62.676 42.8584 62.691 42.8953C62.706 42.9322 62.7136 42.9718 62.7131 43.0117ZM62.6274 45.6492H62.1988V43.6889H62.6274V45.6492Z"/>
<path fill="#007AD0" d="M68.3287 28.8204H61.9015V40.3991H68.3287V28.8204Z"/>
<path fill="#0066BA" d="M62.3096 34.6098C62.3086 33.4947 62.5607 32.3939 63.0467 31.3909C63.5328 30.3879 64.2401 29.5089 65.1151 28.8204C64.0315 27.9666 62.7302 27.4356 61.3598 27.2881C59.9894 27.1407 58.6052 27.3827 57.3656 27.9866C56.1259 28.5905 55.0807 29.5318 54.3495 30.703C53.6182 31.8742 53.2305 33.2281 53.2305 34.6098C53.2305 35.9915 53.6182 37.3453 54.3495 38.5165C55.0807 39.6877 56.1259 40.629 57.3656 41.2329C58.6052 41.8368 59.9894 42.0788 61.3598 41.9314C62.7302 41.7839 64.0315 41.2529 65.1151 40.3991C64.2401 39.7106 63.5328 38.8316 63.0467 37.8286C62.5607 36.8256 62.3086 35.7249 62.3096 34.6098Z"/>
<path fill="#00A2E5" d="M76.2986 39.1727V38.9357H76.394V38.8874H76.1512V38.9357H76.2465V39.1727H76.2986ZM76.7701 39.1727V38.8869H76.6956L76.61 39.0835L76.5244 38.8869H76.4499V39.1727H76.5025V38.9572L76.5828 39.143H76.6373L76.7175 38.9567V39.1727H76.7701Z"/>
<path fill="#00A2E5" d="M76.9995 34.6098C76.9995 35.9914 76.6118 37.3453 75.8806 38.5165C75.1494 39.6877 74.1042 40.629 72.8646 41.2329C71.625 41.8368 70.2408 42.0788 68.8705 41.9314C67.5001 41.7839 66.1987 41.2529 65.1151 40.3991C65.9894 39.7099 66.6962 38.8308 67.1822 37.8279C67.6681 36.8251 67.9207 35.7247 67.9207 34.6098C67.9207 33.4948 67.6681 32.3945 67.1822 31.3916C66.6962 30.3888 65.9894 29.5096 65.1151 28.8204C66.1987 27.9666 67.5001 27.4356 68.8705 27.2881C70.2408 27.1407 71.625 27.3827 72.8646 27.9866C74.1042 28.5905 75.1494 29.5318 75.8806 30.7031C76.6118 31.8743 76.9995 33.2281 76.9995 34.6098Z"/>
</g>
<defs>
<filter color-interpolation-filters="sRGB" filterUnits="userSpaceOnUse" height="113" width="130" y="0" x="0" id="filter0_dd_8_54037">
<feFlood result="BackgroundImageFix" flood-opacity="0"/>
<feColorMatrix result="hardAlpha" values="0 0 0 0 0 0 0 0 0 0 0 0 0 0 0 0 0 0 127 0" type="matrix" in="SourceAlpha"/>
<feOffset dy="2"/>
<feGaussianBlur stdDeviation="10"/>
<feColorMatrix values="0 0 0 0 0.717647 0 0 0 0 0.717647 0 0 0 0 0.717647 0 0 0 0.08 0" type="matrix"/>
<feBlend result="effect1_dropShadow_8_54037" in2="BackgroundImageFix" mode="normal"/>
<feColorMatrix result="hardAlpha" values="0 0 0 0 0 0 0 0 0 0 0 0 0 0 0 0 0 0 127 0" type="matrix" in="SourceAlpha"/>
<feOffset dy="20"/>
<feGaussianBlur stdDeviation="20"/>
<feColorMatrix values="0 0 0 0 0.717647 0 0 0 0 0.717647 0 0 0 0 0.717647 0 0 0 0.08 0" type="matrix"/>
<feBlend result="effect2_dropShadow_8_54037" in2="effect1_dropShadow_8_54037" mode="normal"/>
<feBlend result="shape" in2="effect2_dropShadow_8_54037" in="SourceGraphic" mode="normal"/>
</filter>
</defs>
</svg>