<svg xmlns="http://www.w3.org/2000/svg" fill="none" viewBox="39.924017391304346 19.7976 50.869565217391305 33.9" style="max-height: 500px" width="50.869565217391305" height="33.9">
<g filter="url(#filter0_dd_8_54044)">
<rect fill="white" rx="15.5" height="31" width="48" y="21" x="41"/>
<rect stroke="#D6DCE5" rx="16" height="32" width="49" y="20.5" x="40.5"/>
<path fill="#000008" d="M60.4116 45.6514V44.4259C60.4187 44.3231 60.4039 44.2199 60.3681 44.1233C60.3323 44.0267 60.2764 43.9389 60.2041 43.8656C60.1318 43.7924 60.0448 43.7354 59.9488 43.6985C59.8528 43.6616 59.7501 43.6457 59.6475 43.6518C59.5128 43.6429 59.3783 43.6705 59.2578 43.7315C59.1374 43.7926 59.0356 43.885 58.9629 43.999C58.8967 43.8884 58.8019 43.7978 58.6886 43.7367C58.5753 43.6756 58.4476 43.6462 58.3191 43.6518C58.207 43.6461 58.0954 43.6699 57.9953 43.7207C57.8953 43.7716 57.8102 43.8478 57.7485 43.9418V43.7008H57.3248V45.6514H57.7526V44.5709C57.7431 44.5041 57.7486 44.436 57.7686 44.3715C57.7886 44.307 57.8227 44.2478 57.8683 44.1982C57.9139 44.1485 57.97 44.1097 58.0324 44.0844C58.0949 44.0591 58.1622 44.0481 58.2294 44.0521C58.5106 44.0521 58.6532 44.2359 58.6532 44.5668V45.6514H59.0811V44.5709C59.0723 44.5042 59.0783 44.4364 59.0986 44.3723C59.1189 44.3081 59.153 44.2492 59.1984 44.1997C59.2439 44.1503 59.2997 44.1114 59.3618 44.0859C59.4239 44.0604 59.4908 44.0488 59.5578 44.0521C59.8472 44.0521 59.9857 44.2359 59.9857 44.5668V45.6514H60.4116ZM62.7954 44.6771V43.7028H62.3675V43.9398C62.2957 43.8468 62.2027 43.7724 62.0964 43.7226C61.9901 43.6729 61.8735 43.6493 61.7563 43.6538C61.4861 43.6538 61.227 43.7614 61.0359 43.9529C60.8449 44.1445 60.7376 44.4042 60.7376 44.6751C60.7376 44.9459 60.8449 45.2057 61.0359 45.3972C61.227 45.5888 61.4861 45.6964 61.7563 45.6964C61.8735 45.7009 61.9901 45.6773 62.0964 45.6275C62.2027 45.5778 62.2957 45.5034 62.3675 45.4104V45.6473H62.7913L62.7954 44.6771ZM61.2204 44.6771C61.2272 44.5622 61.2673 44.4517 61.3359 44.3594C61.4045 44.267 61.4985 44.1968 61.6064 44.1573C61.7143 44.1179 61.8314 44.1109 61.9432 44.1373C62.055 44.1636 62.1566 44.2222 62.2356 44.3058C62.3147 44.3894 62.3676 44.4943 62.3878 44.6076C62.4081 44.7209 62.3949 44.8378 62.3498 44.9436C62.3047 45.0495 62.2297 45.1399 62.134 45.2036C62.0383 45.2673 61.9262 45.3015 61.8113 45.3021C61.7302 45.3041 61.6496 45.289 61.5747 45.2578C61.4997 45.2267 61.4321 45.1803 61.3761 45.1214C61.3201 45.0626 61.2769 44.9927 61.2494 44.9162C61.2219 44.8397 61.2107 44.7582 61.2164 44.6771H61.2204ZM71.85 43.6558C71.9896 43.6555 72.1279 43.6818 72.2575 43.7335C72.3813 43.7832 72.4941 43.8567 72.5896 43.95C72.6839 44.0424 72.7587 44.1528 72.8097 44.2747C72.9161 44.5366 72.9161 44.8299 72.8097 45.0918C72.7588 45.2137 72.6839 45.3241 72.5896 45.4165C72.4941 45.5098 72.3813 45.5834 72.2575 45.633C71.9889 45.7377 71.6908 45.7377 71.4222 45.633C71.299 45.5834 71.1868 45.5098 71.0921 45.4165C70.9987 45.3238 70.9246 45.2134 70.8741 45.0918C70.7678 44.8298 70.7678 44.5367 70.8741 44.2747C70.9246 44.1531 70.9987 44.0427 71.0921 43.95C71.1868 43.8567 71.299 43.7831 71.4222 43.7335C71.5565 43.6776 71.7005 43.6492 71.846 43.6497L71.85 43.6558ZM71.85 44.0644C71.767 44.0632 71.6847 44.0785 71.6076 44.1093C71.535 44.1385 71.4691 44.1823 71.414 44.238C71.3578 44.2966 71.3141 44.3661 71.2856 44.4422C71.2234 44.6053 71.2234 44.7857 71.2856 44.9488C71.3141 45.0249 71.3578 45.0944 71.414 45.153C71.469 45.2088 71.5349 45.2526 71.6076 45.2817C71.7628 45.3427 71.9352 45.3427 72.0905 45.2817C72.1666 45.2535 72.236 45.2097 72.2942 45.153C72.3505 45.0945 72.3942 45.025 72.4226 44.9488C72.4848 44.7857 72.4848 44.6053 72.4226 44.4422C72.3942 44.366 72.3505 44.2965 72.2942 44.238C72.236 44.1813 72.1666 44.1375 72.0905 44.1093C72.0136 44.074 71.9304 44.0546 71.846 44.0521L71.85 44.0644ZM65.0978 44.6771C65.0978 44.0644 64.7188 43.6558 64.1748 43.6558C63.9046 43.6596 63.647 43.7709 63.4586 43.9651C63.2702 44.1593 63.1665 44.4206 63.1703 44.6914C63.1741 44.9623 63.2851 45.2205 63.4788 45.4094C63.6725 45.5982 63.9331 45.7022 64.2033 45.6984C64.4934 45.7083 64.777 45.6109 65 45.4247L64.7962 45.1101C64.6353 45.2395 64.436 45.3114 64.2298 45.3144C64.0897 45.3265 63.9505 45.2833 63.8416 45.194C63.7328 45.1048 63.663 44.9765 63.6471 44.8364H65.0917C65.0978 44.7854 65.0978 44.7343 65.0978 44.6771ZM63.6491 44.5056C63.657 44.3759 63.7147 44.2543 63.81 44.1663C63.9054 44.0784 64.031 44.0308 64.1605 44.0337C64.224 44.0324 64.287 44.0435 64.3461 44.0666C64.4052 44.0897 64.4592 44.1242 64.505 44.1682C64.5508 44.2123 64.5875 44.2649 64.613 44.3231C64.6385 44.3813 64.6523 44.444 64.6536 44.5076L63.6491 44.5056ZM66.8806 44.1992C66.6945 44.0918 66.484 44.0341 66.2693 44.0317C66.0371 44.0317 65.8985 44.1175 65.8985 44.2604C65.8985 44.4034 66.0452 44.4279 66.2286 44.4524L66.4323 44.481C66.8561 44.5423 67.1129 44.7221 67.1129 45.0652C67.1129 45.4084 66.7869 45.7025 66.2266 45.7025C65.9263 45.7105 65.6313 45.6217 65.3851 45.4492L65.5888 45.1183C65.7758 45.2574 66.004 45.3293 66.2367 45.3226C66.5261 45.3226 66.6809 45.2368 66.6809 45.0856C66.6809 44.9753 66.5709 44.9141 66.3386 44.8814L66.1349 44.8528C65.6988 44.7915 65.4625 44.5954 65.4625 44.2768C65.4625 43.8887 65.7803 43.6518 66.2775 43.6518C66.5557 43.6424 66.8308 43.7133 67.0701 43.856L66.8806 44.1992ZM68.9181 44.0889H68.2274V44.9692C68.2274 45.1735 68.2966 45.296 68.5085 45.296C68.6408 45.2916 68.7698 45.2537 68.8834 45.1857L69.0057 45.5493C68.8468 45.6487 68.6632 45.7011 68.4759 45.7004C67.9747 45.7004 67.7995 45.4308 67.7995 44.9774V44.0889H67.4042V43.7008H67.7995V43.1084H68.2274V43.7008H68.9181V44.0889ZM70.383 43.6518C70.4858 43.6522 70.5878 43.6701 70.6846 43.7049L70.5542 44.1134C70.47 44.0797 70.38 44.0631 70.2893 44.0644C70.0122 44.0644 69.8818 44.2441 69.8818 44.5668V45.6596H69.458V43.709H69.8777V43.9459C69.9297 43.8563 70.0049 43.7825 70.0953 43.7322C70.1856 43.6818 70.2879 43.6569 70.3912 43.6599L70.383 43.6518ZM73.3129 45.3675C73.3394 45.3672 73.3657 45.372 73.3904 45.3818C73.4138 45.3914 73.4352 45.4052 73.4535 45.4227C73.4714 45.4403 73.4859 45.461 73.4963 45.4839C73.5066 45.5078 73.512 45.5335 73.512 45.5595C73.512 45.5855 73.5066 45.6112 73.4963 45.6351C73.4859 45.658 73.4714 45.6788 73.4535 45.6964C73.4352 45.7138 73.4138 45.7276 73.3904 45.7372C73.366 45.748 73.3396 45.7536 73.3129 45.7536C73.2743 45.7533 73.2366 45.742 73.2041 45.721C73.1716 45.7 73.1458 45.6702 73.1296 45.6351C73.1194 45.6112 73.1141 45.5855 73.1141 45.5595C73.1141 45.5335 73.1194 45.5078 73.1296 45.4839C73.14 45.461 73.1545 45.4403 73.1724 45.4227C73.1907 45.4052 73.2121 45.3914 73.2355 45.3818C73.257 45.3733 73.2797 45.3684 73.3028 45.3675H73.3129ZM73.3129 45.7127C73.3333 45.7128 73.3534 45.7087 73.372 45.7004C73.3896 45.6926 73.4055 45.6815 73.4189 45.6678C73.4362 45.6503 73.4489 45.6289 73.4561 45.6054C73.4633 45.5819 73.4646 45.557 73.46 45.5328C73.4554 45.5087 73.4449 45.486 73.4296 45.4668C73.4143 45.4476 73.3945 45.4325 73.372 45.4227C73.3534 45.4145 73.3333 45.4103 73.3129 45.4104C73.2926 45.4105 73.2725 45.4147 73.2539 45.4227C73.2356 45.4302 73.2189 45.4413 73.205 45.4553C73.1795 45.4832 73.1653 45.5197 73.1653 45.5575C73.1653 45.5953 73.1795 45.6317 73.205 45.6596C73.2191 45.6739 73.2359 45.6853 73.2544 45.693C73.273 45.7007 73.2929 45.7046 73.3129 45.7045V45.7127ZM73.3252 45.4696C73.3442 45.4687 73.3629 45.4745 73.3781 45.486C73.3844 45.4911 73.3893 45.4977 73.3925 45.5052C73.3957 45.5127 73.397 45.5208 73.3965 45.5289C73.3968 45.5357 73.3957 45.5424 73.3932 45.5488C73.3907 45.5551 73.387 45.5608 73.3822 45.5656C73.3704 45.5764 73.3553 45.5829 73.3394 45.584L73.3985 45.6514H73.3517L73.2966 45.584H73.2783V45.6514H73.2396V45.4635L73.3252 45.4696ZM73.2803 45.5044V45.5534H73.3252C73.3331 45.5558 73.3416 45.5558 73.3496 45.5534C73.3511 45.5505 73.3518 45.5474 73.3518 45.5442C73.3518 45.541 73.3511 45.5379 73.3496 45.535C73.3511 45.5322 73.3518 45.529 73.3518 45.5258C73.3518 45.5226 73.3511 45.5195 73.3496 45.5166C73.3416 45.5142 73.3331 45.5142 73.3252 45.5166L73.2803 45.5044Z"/>
<path fill="#7673C0" d="M68.3068 28.8187H61.8887V40.3816H68.3068V28.8187Z"/>
<path fill="#EB001B" d="M62.2962 34.6012C62.295 33.4874 62.5467 32.388 63.032 31.3862C63.5174 30.3843 64.2238 29.5064 65.0978 28.8187C64.0157 27.9662 62.7162 27.4361 61.3478 27.2889C59.9794 27.1418 58.5973 27.3835 57.3594 27.9866C56.1216 28.5896 55.078 29.5296 54.3478 30.6991C53.6177 31.8686 53.2305 33.2205 53.2305 34.6002C53.2305 35.9799 53.6177 37.3317 54.3478 38.5012C55.078 39.6708 56.1216 40.6108 57.3594 41.2138C58.5973 41.8168 59.9794 42.0586 61.3478 41.9114C62.7162 41.7643 64.0157 41.2342 65.0978 40.3816C64.2241 39.6942 63.5179 38.8165 63.0325 37.8151C62.5471 36.8136 62.2954 35.7146 62.2962 34.6012Z"/>
<path fill="#00A1DF" d="M76.2653 39.1561V38.9273H76.361V38.8783H76.1186V38.9273H76.2143V39.1643L76.2653 39.1561ZM76.7359 39.1561V38.8701H76.6626L76.577 39.0744L76.4914 38.8701H76.416V39.1561H76.469V38.9416L76.5485 39.1275H76.6035L76.683 38.9416V39.1581L76.7359 39.1561Z"/>
<path fill="#00A1DF" d="M76.9641 34.6012C76.9638 35.9806 76.5764 37.3321 75.8463 38.5013C75.1161 39.6705 74.0726 40.6103 72.8349 41.2131C71.5973 41.816 70.2155 42.0578 68.8473 41.9107C67.4791 41.7637 66.1798 41.2338 65.0978 40.3816C65.9711 39.6936 66.6772 38.8157 67.1627 37.8142C67.6481 36.8126 67.9004 35.7137 67.9004 34.6002C67.9004 33.4866 67.6481 32.3877 67.1627 31.3862C66.6772 30.3846 65.9711 29.5068 65.0978 28.8187C66.1798 27.9659 67.4793 27.4355 68.8478 27.2882C70.2163 27.1408 71.5985 27.3824 72.8365 27.9854C74.0745 28.5883 75.1183 29.5283 75.8486 30.6978C76.5789 31.8674 76.9661 33.2193 76.9662 34.5991L76.9641 34.6012Z"/>
</g>
<defs>
<filter color-interpolation-filters="sRGB" filterUnits="userSpaceOnUse" height="113" width="130" y="0" x="0" id="filter0_dd_8_54044">
<feFlood result="BackgroundImageFix" flood-opacity="0"/>
<feColorMatrix result="hardAlpha" values="0 0 0 0 0 0 0 0 0 0 0 0 0 0 0 0 0 0 127 0" type="matrix" in="SourceAlpha"/>
<feOffset dy="2"/>
<feGaussianBlur stdDeviation="10"/>
<feColorMatrix values="0 0 0 0 0.717647 0 0 0 0 0.717647 0 0 0 0 0.717647 0 0 0 0.08 0" type="matrix"/>
<feBlend result="effect1_dropShadow_8_54044" in2="BackgroundImageFix" mode="normal"/>
<feColorMatrix result="hardAlpha" values="0 0 0 0 0 0 0 0 0 0 0 0 0 0 0 0 0 0 127 0" type="matrix" in="SourceAlpha"/>
<feOffset dy="20"/>
<feGaussianBlur stdDeviation="20"/>
<feColorMatrix values="0 0 0 0 0.717647 0 0 0 0 0.717647 0 0 0 0 0.717647 0 0 0 0.08 0" type="matrix"/>
<feBlend result="effect2_dropShadow_8_54044" in2="effect1_dropShadow_8_54044" mode="normal"/>
<feBlend result="shape" in2="effect2_dropShadow_8_54044" in="SourceGraphic" mode="normal"/>
</filter>
</defs>
</svg>