<svg xmlns="http://www.w3.org/2000/svg" fill="none" viewBox="39.924017391304346 19.7976 50.869565217391305 33.9" style="max-height: 500px" width="50.869565217391305" height="33.9">
<g filter="url(#filter0_dd_8_54041)">
<rect fill="white" rx="15.5" height="31" width="48" y="21" x="41"/>
<rect stroke="#D6DCE5" rx="16" height="32" width="49" y="20.5" x="40.5"/>
<path fill="#FF5F00" d="M68.4476 30.1335H61.3802V42.8652H68.4476V30.1335Z"/>
<path fill="#EB001B" d="M61.829 36.4994C61.8279 35.2732 62.1051 34.0629 62.6395 32.96C63.174 31.8571 63.9518 30.8905 64.9139 30.1335C63.7224 29.1946 62.2914 28.6107 60.7846 28.4486C59.2777 28.2865 57.7557 28.5526 56.3926 29.2166C55.0295 29.8806 53.8802 30.9157 53.0761 32.2036C52.2721 33.4914 51.8457 34.9801 51.8457 36.4994C51.8457 38.0187 52.2721 39.5073 53.0761 40.7952C53.8802 42.083 55.0295 43.1181 56.3926 43.7821C57.7557 44.4461 59.2777 44.7123 60.7846 44.5501C62.2914 44.388 63.7224 43.8041 64.9139 42.8652C63.9518 42.1082 63.174 41.1417 62.6396 40.0388C62.1051 38.9359 61.8279 37.7255 61.829 36.4994Z"/>
<path fill="#F79E1B" d="M77.9818 36.4994C77.9818 38.0186 77.5555 39.5073 76.7515 40.7951C75.9475 42.083 74.7982 43.1181 73.4351 43.7821C72.072 44.4461 70.5501 44.7123 69.0432 44.5501C67.5364 44.388 66.1054 43.8041 64.9139 42.8652C65.8753 42.1074 66.6524 41.1407 67.1868 40.038C67.7212 38.9353 67.9988 37.7253 67.9988 36.4994C67.9988 35.2734 67.7212 34.0634 67.1868 32.9607C66.6524 31.858 65.8753 30.8913 64.9139 30.1335C66.1054 29.1946 67.5364 28.6107 69.0432 28.4486C70.5501 28.2865 72.072 28.5526 73.4351 29.2166C74.7982 29.8806 75.9475 30.9157 76.7515 32.2036C77.5555 33.4914 77.9818 34.9801 77.9818 36.4994Z"/>
<path fill="#F79E1B" d="M77.2112 41.5167V41.2561H77.316V41.203H77.049V41.2561H77.1539V41.5167H77.2112ZM77.7296 41.5167V41.2025H77.6477L77.5536 41.4186L77.4594 41.2025H77.3775V41.5167H77.4353V41.2797L77.5236 41.4841H77.5835L77.6718 41.2792V41.5167H77.7296Z"/>
</g>
<defs>
<filter color-interpolation-filters="sRGB" filterUnits="userSpaceOnUse" height="113" width="130" y="0" x="0" id="filter0_dd_8_54041">
<feFlood result="BackgroundImageFix" flood-opacity="0"/>
<feColorMatrix result="hardAlpha" values="0 0 0 0 0 0 0 0 0 0 0 0 0 0 0 0 0 0 127 0" type="matrix" in="SourceAlpha"/>
<feOffset dy="2"/>
<feGaussianBlur stdDeviation="10"/>
<feColorMatrix values="0 0 0 0 0.717647 0 0 0 0 0.717647 0 0 0 0 0.717647 0 0 0 0.08 0" type="matrix"/>
<feBlend result="effect1_dropShadow_8_54041" in2="BackgroundImageFix" mode="normal"/>
<feColorMatrix result="hardAlpha" values="0 0 0 0 0 0 0 0 0 0 0 0 0 0 0 0 0 0 127 0" type="matrix" in="SourceAlpha"/>
<feOffset dy="20"/>
<feGaussianBlur stdDeviation="20"/>
<feColorMatrix values="0 0 0 0 0.717647 0 0 0 0 0.717647 0 0 0 0 0.717647 0 0 0 0.08 0" type="matrix"/>
<feBlend result="effect2_dropShadow_8_54041" in2="effect1_dropShadow_8_54041" mode="normal"/>
<feBlend result="shape" in2="effect2_dropShadow_8_54041" in="SourceGraphic" mode="normal"/>
</filter>
</defs>
</svg>