<svg xmlns="http://www.w3.org/2000/svg" fill="none" viewBox="39.924017391304346 19.7976 50.869565217391305 33.9" style="max-height: 500px" width="50.869565217391305" height="33.9">
<g filter="url(#filter0_dd_8_54039)">
<rect fill="white" rx="15.5" height="31" width="48" y="21" x="41"/>
<rect stroke="#D6DCE5" rx="16" height="32" width="49" y="20.5" x="40.5"/>
<path fill="#ED171F" d="M55.9554 27.2461H63.2607C64.2805 27.2461 64.9154 28.0796 64.6774 29.1061L61.2757 43.7445C61.0354 44.7679 60.0149 45.6014 58.9947 45.6014H51.6891C50.6689 45.6014 50.0347 44.7679 50.2727 43.7445L53.6761 29.1061C53.9133 28.0796 54.9332 27.2461 55.9554 27.2461Z"/>
<path fill="#082F67" d="M62.6531 27.2461H71.0548C72.0743 27.2461 71.6145 28.0796 71.3748 29.1061L67.9735 43.7445C67.7358 44.7679 67.8104 45.6014 66.7882 45.6014H58.3871C57.366 45.6014 56.7335 44.7679 56.9735 43.7445L60.3735 29.1061C60.6138 28.0796 61.6333 27.2461 62.6531 27.2461Z"/>
<path fill="#006A65" d="M70.7224 27.2461H78.0267C79.0472 27.2461 79.6814 28.0796 79.4424 29.1061L76.0414 43.7445C75.8024 44.7679 74.7822 45.6014 73.7586 45.6014H66.4564C65.4342 45.6014 64.8011 44.7679 65.0407 43.7445L68.4407 29.1061C68.68 28.0796 69.6998 27.2461 70.7224 27.2461Z"/>
<path fill="white" d="M69.9588 31.9262H70.2644L70.3225 31.9275C70.9221 31.9405 71.4256 31.9514 71.6813 32.3022C71.7786 32.4415 71.8202 32.6225 71.8202 32.8036C71.8202 32.9568 71.7925 33.096 71.7647 33.2074C71.6535 33.6809 71.4174 34.0848 71.0562 34.3494C70.5283 34.7393 69.8476 34.7393 69.2503 34.7393H69.1947C69.1531 34.7672 69.1114 34.8229 69.1114 34.8229C69.1114 34.8507 68.9725 35.4217 68.9725 35.4217C68.9725 35.4217 68.8058 36.2155 68.778 36.3408C68.6668 36.3269 68.3751 36.3269 67.6944 36.3408C67.7222 36.2016 68.4029 33.4024 68.4029 33.4024L68.6807 32.0794L68.7224 31.9123C68.8474 31.9262 69.1669 31.9401 69.9588 31.9262ZM70.1671 33.9594C70.4172 33.848 70.5978 33.5974 70.6672 33.3049C70.7367 32.9846 70.6395 32.7339 70.4033 32.6365C70.3894 32.6365 69.7643 32.5807 69.7643 32.5807L69.6393 32.5668V32.6225L69.6254 32.6922L69.3198 34.0012L69.3059 34.0708H69.4726C69.7226 34.0708 69.9727 34.0569 70.1671 33.9594Z" clip-rule="evenodd" fill-rule="evenodd"/>
<path fill="white" d="M56.7895 31.9401C56.7617 32.0654 56.2616 34.405 56.2616 34.405C56.1505 34.8785 56.0671 35.2127 55.8032 35.4355C55.6504 35.5609 55.4698 35.6166 55.2614 35.6166C54.928 35.6166 54.7335 35.4495 54.7057 35.1431L54.6919 35.0317L54.7891 34.3911C54.7891 34.3911 55.317 32.2604 55.4142 31.9819C55.4142 31.9679 55.4281 31.954 55.4281 31.954C54.4001 31.9679 54.2056 31.954 54.2056 31.9401C54.2056 31.9679 54.1779 32.0933 54.1779 32.0933L53.6361 34.4886L53.5944 34.6975L53.5111 35.3659C53.5111 35.5609 53.5527 35.728 53.6222 35.8673C53.8722 36.299 54.5668 36.3686 54.9697 36.3686C55.4837 36.3686 55.956 36.2572 56.2894 36.0622C56.8356 35.7417 56.9857 35.2419 57.1197 34.7961L57.1368 34.7392L57.1923 34.5025C57.1923 34.5025 57.7341 32.2882 57.8314 31.9958V31.9679C57.6592 31.9647 57.5149 31.9623 57.3938 31.9602C56.9873 31.9533 56.843 31.9508 56.7895 31.9401Z"/>
<path fill="white" d="M71.848 38.0537L70.959 40.9921H71.1951L71.1071 41.2908L71.1257 41.2288H71.3757C71.4452 41.2288 71.5007 41.201 71.5563 41.1731C71.598 41.1592 71.6397 41.1314 71.6952 41.0617L72.3481 40.1426H71.473L71.6258 39.6413H72.626L72.7649 39.1817H71.7786L71.9453 38.6107H74.6958L74.5291 39.1817H73.6123L73.4595 39.6413H74.3902L74.2374 40.1426H73.2372L73.0566 40.3515H73.4595L73.5567 40.9921C73.5613 41.0153 73.5644 41.0339 73.567 41.0494C73.5721 41.0803 73.5752 41.0989 73.5845 41.1174C73.5984 41.1453 73.7234 41.1592 73.7929 41.1592H73.9179L73.7373 41.772H73.2094C73.1464 41.763 73.1009 41.7364 73.0578 41.7113C73.0344 41.6976 73.0116 41.6843 72.9871 41.6745C72.9316 41.6466 72.8482 41.577 72.8204 41.4517L72.7232 40.8111L72.2648 41.4377C72.1259 41.6327 71.9314 41.7859 71.598 41.7859H70.959L71.0131 41.6049H70.7784L70.7228 41.7999H69.8754L69.931 41.6049H68.2084L68.389 41.0478H68.5557L69.6393 37.4549H70.5006L70.4033 37.7613C70.4033 37.7613 70.6395 37.5941 70.8479 37.5384C71.0323 37.4922 71.925 37.4652 72.2232 37.4573L72.2231 37.4549H73.1399L73.1538 37.803C73.1538 37.8587 73.1955 37.8866 73.3066 37.8866H73.5011L73.3344 38.4576H72.8343C72.4037 38.4854 72.237 38.3044 72.2509 38.0955L72.2353 37.7369L72.1398 38.0537H71.848ZM69.4309 41.0061H70.1116L70.32 40.3515H69.6254L69.4309 41.0061ZM69.9866 39.1678L69.7504 39.9477C69.7504 39.9477 70.0144 39.8084 70.1533 39.7666C70.2922 39.7388 70.5145 39.7109 70.5145 39.7109L70.6812 39.1678H69.9866ZM70.32 38.0537L70.0977 38.8057C70.0977 38.8057 70.3478 38.6943 70.4867 38.6525C70.6256 38.6108 70.834 38.5968 70.834 38.5968L71.0007 38.0537H70.32Z" clip-rule="evenodd" fill-rule="evenodd"/>
<path fill="white" d="M62.749 38.764H65.0689L64.9022 39.321H63.9715L63.8326 39.7945H64.7772L64.6105 40.3655H63.6659L63.4297 41.1314C63.4019 41.215 63.652 41.2289 63.7492 41.2289L64.2215 41.1593L64.0271 41.7999H62.9574C62.8914 41.7999 62.8342 41.7912 62.765 41.7806C62.7467 41.7778 62.7276 41.7749 62.7074 41.772C62.624 41.7581 62.5823 41.7024 62.5407 41.6467C62.5337 41.6351 62.5263 41.6242 62.5191 41.6135C62.4831 41.5604 62.4504 41.512 62.4851 41.396L62.7907 40.3794H62.2628L62.4295 39.7945H62.9574L63.0963 39.321H62.5684L62.749 38.764Z"/>
<path fill="white" d="M65.2495 37.7613H64.3049L64.4438 37.4549H63.4991L63.263 37.8866C63.2074 37.9841 63.1657 38.0398 63.1241 38.0676C63.0963 38.0816 63.0268 38.0955 62.9157 38.0955H62.7907L62.624 38.6525H63.0407C63.2491 38.6525 63.4019 38.5829 63.4714 38.5411C63.4978 38.5323 63.5186 38.5277 63.5365 38.5237C63.5751 38.5151 63.6001 38.5096 63.6381 38.4715L63.777 38.3462H65.0828L65.2495 37.7613Z"/>
<path fill="white" d="M65.6663 37.4549H66.472L66.3609 37.8587C66.3609 37.8587 66.6109 37.6499 66.7915 37.5802C66.9721 37.5106 67.3749 37.4549 67.3749 37.4549H68.6808L68.2362 38.945C68.1529 39.1957 68.0695 39.3628 68.014 39.4463C67.9584 39.5299 67.9028 39.5856 67.7917 39.6552C67.6806 39.7109 67.5833 39.7527 67.4861 39.7527C67.4027 39.7666 67.2639 39.7666 67.0834 39.7666H65.8191L65.4579 40.9504C65.4514 40.9764 65.4449 40.9993 65.4392 41.0198C65.4202 41.087 65.4088 41.1272 65.4301 41.1592C65.444 41.1871 65.4857 41.215 65.5551 41.215L66.1108 41.1592L65.9163 41.8138H65.2912C65.0967 41.8138 64.9439 41.8138 64.8467 41.7999C64.8194 41.7959 64.7921 41.7942 64.7654 41.7926C64.697 41.7883 64.6327 41.7842 64.5827 41.7441C64.575 41.7364 64.5668 41.7285 64.5584 41.7203C64.5057 41.6692 64.4438 41.6092 64.4438 41.5492C64.4438 41.4837 64.4684 41.3937 64.5059 41.2559L64.5133 41.2289L65.6663 37.4549ZM66.1386 38.7222C66.1386 38.7222 66.4025 38.4854 66.8471 38.4019C66.9443 38.3879 67.5833 38.3879 67.5833 38.3879L67.6806 38.0676H66.3331L66.1386 38.7222ZM67.3888 38.9589H66.0552L65.9719 39.2235H67.1249C67.236 39.2124 67.276 39.2191 67.2947 39.2222C67.2994 39.223 67.3027 39.2235 67.3055 39.2235L67.3888 38.9589Z" clip-rule="evenodd" fill-rule="evenodd"/>
<path fill="white" d="M67.9583 40.2261L68.0278 39.864H67.4165L67.3332 40.1147C67.3193 40.1565 67.3054 40.1843 67.2776 40.1983C67.2498 40.2122 67.1943 40.2261 67.1387 40.2261H66.9442L66.9581 39.9058H66.1663L66.1385 41.4795C66.1385 41.5909 66.1524 41.6605 66.2357 41.7162C66.3191 41.7859 66.5691 41.7998 66.9164 41.7998H67.4165L67.5971 41.201L67.1665 41.2288L67.0276 41.2427C67.0218 41.237 67.0161 41.2336 67.0093 41.2296C66.9998 41.224 66.9883 41.2173 66.972 41.201C66.9683 41.1936 66.9636 41.1891 66.9588 41.1845C66.9453 41.1717 66.9303 41.1574 66.9303 41.0756V40.6718L67.3749 40.6439C67.611 40.6439 67.7222 40.5604 67.8055 40.4907C67.9027 40.4211 67.9305 40.3375 67.9583 40.2261Z"/>
<path fill="white" d="M58.8871 36.3408C59.3178 36.3269 59.4567 36.3269 59.8179 36.3269L59.8595 36.2851C59.9037 35.9865 59.9303 35.8548 59.995 35.5343C60.0118 35.4512 60.0311 35.3553 60.054 35.2406L60.1096 34.99L60.1134 34.9723C60.222 34.4689 60.2753 34.2216 60.1929 34.0151C60.0957 33.7784 59.8734 33.7227 59.679 33.7227C59.54 33.7227 59.3039 33.7505 59.0816 33.8619C59.0469 33.8828 59.0087 33.9037 58.9705 33.9246C58.9323 33.9455 58.8941 33.9664 58.8594 33.9873L58.9288 33.7366L58.8871 33.6948C58.4401 33.7899 58.3233 33.8055 57.9314 33.8579L57.9008 33.8619L57.873 33.8898L57.8719 33.898C57.8169 34.2979 57.7746 34.6055 57.5952 35.4078C57.5605 35.554 57.5258 35.7037 57.491 35.8534C57.4563 36.003 57.4216 36.1529 57.3868 36.299L57.4007 36.3408C57.8314 36.3269 57.9703 36.3269 58.3454 36.3269L58.3731 36.299C58.3962 36.1952 58.4096 36.1248 58.4254 36.0424C58.4478 35.9258 58.4747 35.785 58.5398 35.4913C58.5576 35.4111 58.5796 35.3039 58.6032 35.1892C58.6533 34.9453 58.7104 34.6675 58.7482 34.5443C58.8455 34.5025 58.9427 34.4608 59.0261 34.4608C59.2344 34.4608 59.2205 34.6557 59.2066 34.7254C59.1928 34.8507 59.1233 35.2546 59.0399 35.6027L58.9844 35.8255C58.9613 35.9645 58.9286 36.0939 58.8942 36.2296C58.8873 36.2571 58.8803 36.2848 58.8732 36.313L58.8871 36.3408Z"/>
<path fill="white" d="M61.3042 36.3269H60.8041C60.7405 36.3269 60.6769 36.3298 60.6079 36.3329C60.5263 36.3367 60.4372 36.3408 60.3318 36.3408L60.304 36.3129C60.3596 36.104 60.3874 36.0205 60.4152 35.9509C60.4429 35.8812 60.4707 35.7977 60.5124 35.5888C60.5819 35.3102 60.6235 35.1153 60.6513 34.9342C60.6652 34.8507 60.6756 34.7741 60.6861 34.6975C60.6965 34.6209 60.7069 34.5443 60.7208 34.4608L60.7486 34.4329C60.8547 34.4196 60.9418 34.4063 61.019 34.3945C61.1035 34.3816 61.1761 34.3705 61.2487 34.3633C61.3876 34.3493 61.5404 34.3215 61.7627 34.2658L61.7765 34.2797V34.2936C61.7557 34.3842 61.7349 34.4712 61.714 34.5583C61.6932 34.6453 61.6724 34.7323 61.6515 34.8228C61.6307 34.9134 61.6098 35.0004 61.589 35.0875C61.5682 35.1745 61.5473 35.2615 61.5265 35.352C61.4431 35.728 61.4154 35.8534 61.3876 35.9648C61.3811 36.0104 61.3746 36.0469 61.3666 36.0914C61.3576 36.1419 61.3468 36.2028 61.332 36.299L61.3042 36.3269Z"/>
<path fill="white" d="M64.4994 34.0708C64.6244 34.2379 64.7216 34.5025 64.5966 35.0596C64.5549 35.2267 64.4438 35.6445 64.2077 35.9091C63.8881 36.2572 63.4575 36.3686 63.0408 36.3686C62.8741 36.3686 62.624 36.3408 62.4434 36.2711C61.8739 36.0344 61.9572 35.4216 62.0406 35.0735C62.11 34.7393 62.2489 34.3911 62.5268 34.1265C62.9157 33.7644 63.4158 33.7505 63.6242 33.7505C63.9715 33.7505 64.3049 33.8201 64.4994 34.0708ZM63.6207 35.0993C63.6277 35.0712 63.6335 35.048 63.6381 35.0317C63.7353 34.6 63.7214 34.3215 63.4853 34.3493C63.1936 34.3493 63.0824 34.6975 62.9852 35.1292C62.9811 35.1515 62.9771 35.1732 62.9731 35.1945C62.9499 35.3192 62.9296 35.428 62.9296 35.547C62.9296 35.8116 63.1102 35.8116 63.138 35.8116C63.2491 35.8116 63.3325 35.7419 63.4158 35.6305C63.52 35.5029 63.5856 35.2398 63.6207 35.0993Z" clip-rule="evenodd" fill-rule="evenodd"/>
<path fill="white" d="M73.5428 36.3686C73.0983 36.3686 72.9732 36.3686 72.5565 36.3826L72.5287 36.3547L72.573 36.188C72.4219 36.3147 72.2589 36.4019 72.0842 36.4104C71.9314 36.4104 71.7647 36.3826 71.5841 36.3129C71.0146 36.0901 71.0979 35.4634 71.1813 35.1292C71.2507 34.795 71.3896 34.4468 71.6675 34.1822C72.0703 33.8341 72.5288 33.7366 72.7232 33.8062C72.8674 33.8624 72.9642 33.951 73.032 34.0557L73.0427 33.9733L73.0705 33.9455C73.1619 33.9312 73.2391 33.9192 73.3083 33.9085C73.5753 33.8672 73.7204 33.8447 74.0846 33.7784L74.0985 33.8202L73.8484 34.8646C73.7182 35.4304 73.6558 35.7837 73.6016 36.0904L73.6014 36.0914C73.5863 36.1769 73.5718 36.2589 73.5567 36.3408L73.5428 36.3686ZM72.9193 34.7545C72.9158 34.5152 72.8104 34.3772 72.6399 34.3772C72.3482 34.3772 72.237 34.7393 72.1398 35.1571L72.1322 35.1989C72.1071 35.3357 72.0842 35.461 72.0842 35.5749C72.0842 35.8394 72.2648 35.8394 72.2926 35.8394C72.4037 35.8394 72.5843 35.7837 72.6538 35.6723C72.6958 35.6144 72.7339 35.5265 72.7665 35.4352C72.7946 35.3201 72.8219 35.2043 72.8482 35.0874C72.8764 34.9617 72.8997 34.8523 72.9193 34.7545Z" clip-rule="evenodd" fill-rule="evenodd"/>
<path fill="white" d="M67.0971 36.3269C66.722 36.3269 66.597 36.3269 66.1802 36.3408L66.1663 36.313C66.1733 36.2848 66.1803 36.2571 66.1873 36.2297C66.2216 36.0939 66.2543 35.9645 66.2775 35.8255L66.333 35.6027C66.4164 35.2546 66.4858 34.8507 66.4997 34.7254C66.5136 34.6557 66.5275 34.4608 66.3191 34.4608C66.2358 34.4608 66.1385 34.5025 66.0413 34.5443C66.0035 34.6675 65.9464 34.9452 65.8963 35.1892C65.8727 35.3039 65.8507 35.4111 65.8329 35.4913C65.7454 35.8864 65.7268 36.0047 65.7025 36.1598C65.6959 36.2015 65.689 36.2459 65.6801 36.299L65.6523 36.3269C65.2773 36.3269 65.1383 36.3269 64.7077 36.3408L64.6938 36.299C64.7285 36.1528 64.7633 36.0031 64.798 35.8534C64.8327 35.7037 64.8675 35.554 64.9022 35.4078C65.0815 34.6055 65.1239 34.2979 65.1789 33.898L65.18 33.8898L65.2078 33.8619L65.2384 33.8579C65.6303 33.8055 65.7471 33.7899 66.1941 33.6948L66.2358 33.7366L66.1663 33.9873C66.2011 33.9664 66.2393 33.9455 66.2775 33.9246C66.3157 33.9037 66.3539 33.8828 66.3886 33.8619C66.6109 33.7505 66.847 33.7227 66.972 33.7227C67.1665 33.7227 67.3888 33.7784 67.486 34.0151C67.5684 34.2216 67.5151 34.4689 67.4065 34.9723L67.4027 34.99L67.3471 35.2406C67.2474 35.6848 67.2184 35.8456 67.1755 36.0832C67.1646 36.1435 67.1528 36.2089 67.1387 36.2851L67.0971 36.3269Z"/>
<path fill="white" d="M77.1685 33.7783L77.1268 33.7366C76.6684 33.834 76.5989 33.848 76.1822 33.9037L76.1544 33.9315V33.9455C75.9912 34.3248 75.9151 34.4579 75.8416 34.5865C75.7774 34.6987 75.7152 34.8075 75.5987 35.0735V35.0038L75.5432 33.7783L75.5015 33.7366C75.3917 33.7592 75.3067 33.7774 75.2355 33.7926C75.0002 33.8428 74.9152 33.8609 74.5846 33.9037L74.5569 33.9315C74.5569 33.9455 74.5569 33.9594 74.543 33.9733C74.5847 34.1826 74.5873 34.2032 74.6095 34.3836C74.6169 34.4433 74.6264 34.5205 74.6402 34.6278C74.6541 34.7392 74.668 34.8472 74.6819 34.9551C74.6958 35.063 74.7097 35.171 74.7236 35.2824C74.7383 35.4101 74.7512 35.5136 74.7643 35.6179C74.7883 35.8092 74.8126 36.0032 74.8486 36.3547C74.7375 36.5403 74.6587 36.6835 74.5875 36.8127C74.4717 37.0229 74.3763 37.1961 74.1957 37.4549L74.2096 37.4966C74.6402 37.4827 74.7375 37.4827 75.057 37.4827L75.1264 37.3991C75.3487 36.9117 77.1685 33.7783 77.1685 33.7783Z"/>
<path fill="white" d="M61.7766 33.5555C61.985 33.6669 61.9572 33.9037 61.7071 34.0708C61.4571 34.2379 61.0959 34.2797 60.8875 34.1683C60.6792 34.0429 60.7069 33.8062 60.957 33.6391C61.207 33.4719 61.5682 33.4302 61.7766 33.5555Z"/>
</g>
<defs>
<filter color-interpolation-filters="sRGB" filterUnits="userSpaceOnUse" height="113" width="130" y="0" x="0" id="filter0_dd_8_54039">
<feFlood result="BackgroundImageFix" flood-opacity="0"/>
<feColorMatrix result="hardAlpha" values="0 0 0 0 0 0 0 0 0 0 0 0 0 0 0 0 0 0 127 0" type="matrix" in="SourceAlpha"/>
<feOffset dy="2"/>
<feGaussianBlur stdDeviation="10"/>
<feColorMatrix values="0 0 0 0 0.717647 0 0 0 0 0.717647 0 0 0 0 0.717647 0 0 0 0.08 0" type="matrix"/>
<feBlend result="effect1_dropShadow_8_54039" in2="BackgroundImageFix" mode="normal"/>
<feColorMatrix result="hardAlpha" values="0 0 0 0 0 0 0 0 0 0 0 0 0 0 0 0 0 0 127 0" type="matrix" in="SourceAlpha"/>
<feOffset dy="20"/>
<feGaussianBlur stdDeviation="20"/>
<feColorMatrix values="0 0 0 0 0.717647 0 0 0 0 0.717647 0 0 0 0 0.717647 0 0 0 0.08 0" type="matrix"/>
<feBlend result="effect2_dropShadow_8_54039" in2="effect1_dropShadow_8_54039" mode="normal"/>
<feBlend result="shape" in2="effect2_dropShadow_8_54039" in="SourceGraphic" mode="normal"/>
</filter>
</defs>
</svg>