<svg width="144" height="112" viewBox="0 0 144 112" fill="none" xmlns="http://www.w3.org/2000/svg">
<path d="M24.9084 37.918H19.4794V32.855L30.9474 22.302H12.4034V15.409H40.7074V21.631L29.8494 31.635C36.6814 32.977 41.9884 37.979 41.9884 45.848C41.9884 54.998 34.8514 60.793 25.8234 60.793C17.1004 60.793 10.3294 55.425 10.3294 45.787H18.0154C18.0154 50.911 21.1874 53.839 25.9454 53.839C30.8254 53.839 34.0584 50.667 34.0584 45.726C34.0584 41.212 31.1304 37.918 24.9084 37.918ZM52.8059 28.524L62.4439 15.409H71.3499L60.6749 29.622C61.7729 29.317 62.9319 29.134 64.0299 29.134C73.2409 29.134 79.4629 35.6 79.4629 44.628C79.4629 54.144 72.3869 60.793 62.8709 60.793C53.2329 60.793 46.0349 53.717 46.0349 44.567C46.0349 39.199 47.8039 35.295 52.8059 28.524ZM54.0259 44.628C54.0259 50.057 57.6249 53.839 62.8709 53.839C67.9339 53.839 71.5939 50.057 71.5939 44.628C71.5939 39.26 67.9949 35.539 62.8709 35.539C57.5639 35.539 54.0259 39.26 54.0259 44.628ZM84.289 37.796C84.289 23.949 91.731 14.555 103.138 14.555C114.545 14.555 122.048 23.949 122.048 37.796C122.048 51.582 114.972 60.793 103.138 60.793C91.304 60.793 84.289 51.582 84.289 37.796ZM91.975 37.796C91.975 48.105 96.123 53.9 103.138 53.9C110.214 53.9 114.362 48.105 114.362 37.796C114.362 27.243 110.214 21.448 103.138 21.448C96.123 21.448 91.975 27.243 91.975 37.796Z" fill="white"/>
<circle cx="130.893" cy="6" r="5" stroke="white" stroke-width="2"/>
<path d="M2.50173 78C-7.99827 124.5 150.002 114 130.502 78" stroke="white" stroke-width="4"/>
<path d="M121.392 64.7321C121.392 63.9623 122.226 63.4811 122.892 63.866L137.892 72.5263C138.559 72.9112 138.559 73.8734 137.892 74.2583L122.892 82.9186C122.226 83.3035 121.392 82.8224 121.392 82.0526L121.392 64.7321Z" fill="white"/>
</svg>
