<svg width="93" height="94" viewBox="0 0 93 94" fill="none" xmlns="http://www.w3.org/2000/svg">
<path d="M91.2433 21.8955C91.2433 21.5338 90.7267 21.1722 90.4683 20.8105L90.0033 20.2938C88.8004 18.8084 87.2828 17.6084 85.56 16.7805L52.4933 1.2805C50.6626 0.436858 48.6708 0 46.655 0C44.6392 0 42.6474 0.436858 40.8167 1.2805L7.75 16.7805C6.036 17.6225 4.52122 18.8202 3.30667 20.2938L2.68667 20.5522C2.38613 20.8628 2.12576 21.21 1.91167 21.5855C0.679088 23.5344 0.0168668 25.7896 0 28.0955V64.5722C0.00691296 67.0365 0.721493 69.4471 2.05875 71.5171C3.39601 73.5871 5.29967 75.2294 7.54333 76.2488L40.61 91.7488C42.4477 92.6002 44.4488 93.0413 46.4742 93.0413C48.4995 93.0413 50.5006 92.6002 52.3383 91.7488L85.405 76.2488C87.6425 75.2444 89.5462 73.6212 90.8918 71.5708C92.2374 69.5203 92.9689 67.1279 93 64.6755V28.0955C92.9735 25.9098 92.3673 23.7703 91.2433 21.8955ZM45.0017 10.5288C45.4747 10.3241 45.9846 10.2184 46.5 10.2184C47.0154 10.2184 47.5253 10.3241 47.9983 10.5288L75.5367 23.3422L46.5 36.8272L17.4633 23.3422L45.0017 10.5288ZM11.8833 67.0522C11.4335 66.8777 11.0458 66.5732 10.7698 66.1775C10.4937 65.7819 10.3418 65.3129 10.3333 64.8305V31.4022L41.3333 45.8172V80.5372L11.8833 67.0522ZM81.065 67.0522L51.6667 80.5372V45.8172L82.6667 31.4022V64.6755C82.6785 65.1887 82.5308 65.6929 82.2439 66.1186C81.957 66.5443 81.5451 66.8705 81.065 67.0522Z" fill="black"/>
</svg>
