<svg width="34" height="34" viewBox="0 0 34 34" fill="none" xmlns="http://www.w3.org/2000/svg">
<path d="M26.9167 15.5833H7.08333M26.9167 15.5833C28.4815 15.5833 29.75 16.8519 29.75 18.4167V26.9167C29.75 28.4815 28.4815 29.75 26.9167 29.75H7.08333C5.51853 29.75 4.25 28.4815 4.25 26.9167V18.4167C4.25 16.8519 5.51853 15.5833 7.08333 15.5833M26.9167 15.5833V12.75C26.9167 11.1852 25.6481 9.91667 24.0833 9.91667M7.08333 15.5833V12.75C7.08333 11.1852 8.35186 9.91667 9.91667 9.91667M9.91667 9.91667V7.08333C9.91667 5.51853 11.1852 4.25 12.75 4.25H21.25C22.8148 4.25 24.0833 5.51853 24.0833 7.08333V9.91667M9.91667 9.91667H24.0833" stroke="#007143" stroke-width="2" stroke-linecap="round" stroke-linejoin="round"/>
</svg>
