<svg width="14" height="23" viewBox="0 0 14 23" fill="none" xmlns="http://www.w3.org/2000/svg">
<path d="M5.58035 22.1338L0.00035172 12.3998V10.1058H1.86035C2.60435 10.1058 3.25535 10.0025 3.81335 9.79579C4.39202 9.56846 4.86735 9.24812 5.23935 8.83479C5.63202 8.42145 5.90069 7.92545 6.04535 7.34679H0.00035172V5.05279H6.01435C5.89035 4.51546 5.67335 4.04012 5.36335 3.62679C5.07402 3.21345 4.68135 2.89312 4.18535 2.66579C3.71002 2.41779 3.13135 2.29379 2.44935 2.29379H0.00035172V-0.000212371H13.9814V2.29379H9.11435C9.46569 2.68645 9.75502 3.11012 9.98235 3.56479C10.2304 4.01945 10.3957 4.51546 10.4784 5.05279H13.9814V7.34679H10.5404C10.3337 8.87612 9.74469 10.0748 8.77335 10.9428C7.80202 11.7901 6.55169 12.3688 5.02235 12.6788L11.0984 22.1338H5.58035Z" fill="#007143"/>
</svg>
